PathFileType	4	(X/Y/Z)	 s09c0202.trc
DataRate	CameraRate	NumFrames	NumMarkers	Units	OrigDataRate	OrigDataStartFrame	OrigNumFrames
200	200	7	50	mm	200	501	2000
Frame#	Time	racr			lacr			c7			jug			rlel			rdr			llel			ldr			s2			lic			ric			lasi			rasi			rpsi			lpsi			rgt			lgt			rth1			rth2			rth3			rth4			rlfc			rmfc			rsh1			rsh2			rsh3			rsh4			rlmal			rmmal			rcal			rtoe			rmt5			lth1			lth2			lth4			lth3			llfc			lmfc			llmal			lmmal			lcal			lmt5			lsh1			lsh2			lsh3			lsh4			ltoe			SBIKE			LBIKE			RBIKE			
		X1	Y1	Z1	X2	Y2	Z2	X3	Y3	Z3	X4	Y4	Z4	X5	Y5	Z5	X6	Y6	Z6	X7	Y7	Z7	X8	Y8	Z8	X9	Y9	Z9	X10	Y10	Z10	X11	Y11	Z11	X12	Y12	Z12	X13	Y13	Z13	X14	Y14	Z14	X15	Y15	Z15	X16	Y16	Z16	X17	Y17	Z17	X18	Y18	Z18	X19	Y19	Z19	X20	Y20	Z20	X21	Y21	Z21	X22	Y22	Z22	X23	Y23	Z23	X24	Y24	Z24	X25	Y25	Z25	X26	Y26	Z26	X27	Y27	Z27	X28	Y28	Z28	X29	Y29	Z29	X30	Y30	Z30	X31	Y31	Z31	X32	Y32	Z32	X33	Y33	Z33	X34	Y34	Z34	X35	Y35	Z35	X36	Y36	Z36	X37	Y37	Z37	X38	Y38	Z38	X39	Y39	Z39	X40	Y40	Z40	X41	Y41	Z41	X42	Y42	Z42	X43	Y43	Z43	X44	Y44	Z44	X45	Y45	Z45	X46	Y46	Z46	X47	Y47	Z47	X48	Y48	Z48	X49	Y49	Z49	X50	Y50	Z50	
501	2.5050	542.600420	1227.916652	-131.733869	523.711386	1203.512497	-465.633774	510.117664	1278.696651	-296.543261	480.717651	1139.666863	-289.813074	483.781795	1045.200766	37.626852	663.821396	908.429410	-42.341464	432.914813	957.143179	-570.405459	650.193643	907.308799	-449.482192	5.499444	1149.362636	-244.923311	133.690064	1132.424320	-401.039303	152.635401	1139.309966	-104.362436	174.784175	1072.020759	-378.010447	188.073832	1081.751847	-124.688534	40.034065	1178.376763	-187.847605	36.046807	1183.164434	-295.376302	127.351994	1006.707699	-55.618918	102.093608	1003.017544	-429.903256	233.275346	914.740287	-72.901613	309.158299	872.944626	-85.905783	349.490191	794.355162	-95.990113	328.709421	893.223711	-110.083309	385.725791	700.407991	-127.458044	355.177356	683.807469	-222.650398	305.246167	641.293848	-88.611590	256.111732	567.192459	-97.525289	177.207811	527.985501	-89.437252	270.574696	551.447396	-130.894500	99.862008	460.432769	-81.889791	102.962959	464.855261	-159.990716	14.182518	472.382714	-119.034903	218.314278	302.522677	-126.559657	146.125488	340.977658	-61.928836	205.077570	906.570195	-425.016258	280.942511	869.097626	-414.293346	305.291914	895.512541	-402.156162	329.695750	793.502014	-404.118811	389.238469	713.063473	-385.741756	396.659057	700.189899	-288.490125	328.548388	347.950446	-409.178885	337.808068	357.137574	-331.177195	269.126638	288.258552	-371.173812	442.478185	295.660788	-435.523832	370.703582	613.505540	-412.638160	379.083756	527.541190	-406.113512	342.773996	446.580953	-409.063372	402.315811	525.248525	-373.367000	525.894073	342.384189	-368.661259	-64.948381	852.064355	-239.214045	20.960223	84.738469	-442.177132	21.078996	84.144749	-43.839530	
502	2.5100	542.055193	1229.200858	-130.123390	525.568196	1203.988945	-464.680792	510.811525	1279.716614	-295.327229	481.727077	1140.741657	-288.741456	483.112425	1044.980981	37.592752	663.026506	908.312364	-42.692076	433.615091	958.418965	-570.298199	650.174514	907.344006	-448.735035	6.477662	1148.613417	-246.876933	135.493566	1131.472062	-402.304464	152.802022	1139.741145	-105.291631	176.507433	1071.224991	-378.634909	188.546786	1082.293529	-125.312808	40.430809	1178.113364	-189.789525	37.229706	1182.277261	-297.394989	128.371324	1007.801463	-56.601529	103.427722	1001.268951	-430.655674	235.293271	917.086948	-72.690539	311.716391	876.134480	-86.605623	353.060983	798.032259	-96.390510	330.878103	896.575699	-110.937761	389.927730	703.943985	-127.511898	359.504414	687.190117	-222.430333	308.845887	645.558586	-88.647762	258.939896	572.036948	-97.570274	179.551952	533.598355	-89.583218	273.226145	555.938782	-130.872713	101.651592	466.903834	-82.059607	105.106100	472.400311	-161.036739	16.009722	479.329870	-119.115041	219.163294	308.482662	-126.904638	147.316510	347.390745	-62.024432	205.151220	903.941912	-425.506816	280.404154	865.458971	-414.715018	305.148225	891.540456	-402.525544	328.143474	788.949067	-404.257125	386.852698	707.918896	-385.711674	394.114115	695.175811	-288.830700	328.191077	342.205846	-408.582001	337.272996	351.667009	-331.300065	268.516231	283.555623	-371.199043	441.916465	289.226530	-435.391519	368.689518	608.370030	-412.661801	377.666003	522.575773	-406.188124	341.921975	441.254019	-409.171921	400.840731	520.373077	-373.280150	526.092894	334.969788	-368.432790	-64.925782	852.111477	-239.283730	20.968058	84.728156	-442.181388	21.085051	84.152947	-43.834841	
503	2.5150	541.345229	1230.552703	-128.442902	527.349326	1204.669099	-463.675597	511.410474	1280.942883	-294.230203	482.653930	1141.992790	-287.581077	482.409191	1044.728629	37.529543	662.614752	908.215217	-43.184399	434.335147	959.794157	-570.185874	650.199180	907.403398	-448.094950	7.380603	1147.833058	-248.852324	137.256533	1130.453010	-403.469417	153.087007	1140.218042	-106.113549	178.210186	1070.453491	-379.235697	189.065679	1082.834212	-125.822659	40.814622	1177.817544	-191.574800	38.243803	1181.335739	-299.234180	129.402509	1008.960154	-57.545399	104.795101	999.594267	-431.444890	237.409316	919.364949	-74.315285	314.272033	879.435968	-87.843712	356.757891	801.765828	-96.603853	333.127273	899.940263	-111.851572	394.152275	707.560584	-127.630324	362.782358	690.375611	-221.526896	312.615789	649.735003	-88.733382	261.862351	576.841158	-97.621204	181.989193	539.377573	-89.647386	275.993423	560.574809	-130.989645	103.555410	473.414840	-82.184284	107.139921	478.754807	-161.374877	17.728217	486.420768	-119.196464	220.392470	314.738589	-126.993250	148.648353	353.771225	-62.190796	205.189741	901.254663	-426.007058	279.774294	861.913502	-415.214022	304.936746	887.354752	-402.947419	326.417835	784.511035	-404.424756	384.162648	702.833309	-385.778965	391.377574	690.048738	-289.218131	327.488777	336.900396	-408.629092	336.671039	346.082279	-331.475704	267.495918	278.839349	-371.442159	441.135691	282.759083	-435.314957	366.486331	603.174324	-412.806197	376.034207	517.438641	-406.301171	340.837959	435.897560	-409.320504	399.050460	515.377959	-373.486291	525.356883	327.287179	-367.800515	-64.883136	852.141924	-239.347197	20.974038	84.727048	-442.168250	21.103896	84.150932	-43.821176	
504	2.5200	540.547150	1231.909727	-126.656953	529.100901	1205.563208	-462.582843	511.872599	1282.242340	-293.055629	483.579233	1143.411291	-286.239935	481.760609	1044.195384	37.438800	662.264249	908.114582	-43.608041	435.202856	961.573336	-570.524130	650.319232	907.428175	-447.423723	8.323310	1147.066819	-250.715303	139.019658	1129.522504	-404.639285	153.195261	1140.804711	-106.948549	179.870942	1069.732746	-379.691951	189.645135	1083.444022	-126.367301	41.117748	1177.451118	-193.402664	39.192336	1180.409871	-301.014257	130.570662	1010.082372	-58.450643	106.174318	997.927733	-432.157427	239.487804	921.772865	-75.062195	316.862905	882.877272	-88.605346	360.261041	805.788477	-97.042603	335.302592	903.429784	-112.867289	398.384251	711.217494	-127.717831	368.600378	694.864357	-223.295606	316.389909	654.047877	-88.842224	264.789752	581.713177	-97.805577	184.644359	545.020870	-89.789795	278.848195	565.302389	-131.008833	105.643787	479.794843	-82.313544	108.527211	485.594863	-161.402517	19.759168	493.320869	-119.304975	222.019114	320.842589	-127.047763	149.992163	360.060188	-62.527151	205.200965	898.467886	-426.586102	279.116516	858.080253	-415.614722	304.688746	883.193858	-403.277563	324.500727	779.881816	-404.648998	381.302385	697.683660	-385.949322	388.346434	684.947609	-289.723059	326.430209	331.571818	-408.697232	335.833697	340.719123	-331.668304	266.300872	274.167013	-371.690871	440.061507	276.363826	-435.245618	363.953562	597.860179	-412.943286	374.033000	512.237883	-406.455204	339.412782	430.489843	-409.486159	397.063885	510.402723	-373.650484	524.721902	319.932804	-367.571605	-64.851401	852.152861	-239.399683	20.982261	84.701658	-442.165156	21.117326	84.143748	-43.819200	
505	2.5250	539.627093	1233.400363	-124.748846	530.875177	1206.507288	-461.433837	512.453901	1283.936899	-291.311409	484.443099	1145.090695	-284.929292	481.086146	1043.880082	37.320611	662.034581	908.022113	-43.959477	435.910032	963.322945	-570.397591	650.406344	907.427206	-446.978949	9.194723	1146.325316	-252.363765	140.636103	1128.615713	-405.722572	153.393699	1141.287556	-107.745973	181.517753	1069.101254	-380.179235	190.239322	1083.986018	-126.759817	41.478170	1177.067050	-195.112667	40.133378	1179.488835	-302.863534	131.775797	1011.327346	-59.332488	107.505278	996.298248	-432.837783	241.610801	924.306392	-75.759430	319.402624	886.153059	-89.441110	363.922209	809.677701	-97.370666	337.433348	906.870420	-113.650072	402.663104	715.024674	-127.902922	372.726658	698.422102	-223.555879	320.056594	658.235896	-89.240513	267.862540	586.682835	-97.941078	187.460462	550.681479	-89.960048	281.769343	569.955850	-131.136205	107.888605	486.277984	-82.388098	110.261325	490.968414	-160.493490	22.037415	500.146133	-119.317000	223.671597	327.028701	-127.131501	152.266186	366.734027	-62.376745	205.163200	895.737895	-427.179828	277.964779	854.299491	-416.937113	304.338761	878.866142	-403.720551	322.578811	775.263966	-404.902856	378.371265	692.362786	-385.938643	385.774149	679.637669	-290.238673	325.102823	326.230093	-408.674874	334.566139	335.288636	-331.898260	264.910157	269.456715	-371.859601	438.817403	269.853878	-434.820781	361.145434	592.543606	-413.252803	371.797403	506.987064	-406.728462	337.757163	425.085019	-409.667009	394.876173	505.403164	-373.929016	523.755792	312.658873	-367.307036	-64.790758	852.188657	-239.489773	21.003392	84.700524	-442.159073	21.133337	84.140571	-43.822146	
506	2.5300	538.623584	1234.908013	-122.763424	532.592689	1207.713454	-460.215733	512.903907	1285.666520	-289.551315	485.248098	1146.780704	-283.362918	480.327563	1043.476925	37.190258	661.833761	908.030123	-44.223305	436.759166	965.080078	-570.122801	650.499157	907.411435	-446.560025	10.023929	1145.574295	-254.095198	141.998750	1127.437565	-406.603114	153.733308	1141.892561	-108.416725	183.131505	1068.454748	-380.533410	190.934423	1084.552882	-127.077379	41.757283	1176.604374	-196.804413	40.957316	1178.535295	-304.580262	133.056133	1012.483462	-60.204788	108.883818	994.693796	-433.462423	243.696767	926.836502	-76.683983	322.097015	889.605020	-90.552828	366.970049	813.940991	-97.922563	340.115495	910.124492	-115.210186	406.873646	718.992151	-128.220020	376.839026	701.862025	-223.617689	324.327422	663.120446	-88.966948	271.059948	591.560962	-98.145320	190.228021	556.404345	-90.097227	284.839658	574.620161	-131.294587	110.408988	492.568314	-82.471430	112.252812	497.330543	-160.844888	24.725767	506.617776	-119.233798	225.718954	333.161114	-127.197651	154.877476	373.241287	-61.935325	205.046948	892.895758	-427.780108	277.303193	849.955362	-416.420788	303.889830	874.340001	-403.951147	320.442556	770.613600	-405.179408	375.016163	687.174925	-386.362362	381.398841	673.164913	-291.772192	323.459034	320.935286	-408.733280	333.118579	329.836493	-332.211052	263.241388	264.839757	-372.164940	437.243807	263.481473	-434.809591	358.022107	587.247069	-413.672994	369.250113	501.783673	-407.060856	335.762977	419.587555	-409.898348	392.322944	500.330501	-374.213251	522.435103	305.549936	-367.110048	-64.743115	852.212350	-239.558951	21.008938	84.694163	-442.171884	21.133033	84.138584	-43.812600	
507	2.5350	537.475503	1236.367317	-120.655562	534.320550	1209.162041	-458.939911	513.242031	1287.580177	-287.631016	486.000882	1148.747953	-281.703543	479.655573	1043.060752	37.067070	661.751993	907.945115	-44.462076	437.471714	967.039659	-569.843677	650.595716	907.379169	-446.223125	10.489608	1145.689991	-255.482590	143.496894	1126.519754	-407.587104	153.817708	1142.267497	-109.140401	184.619701	1067.892580	-380.905050	191.655208	1085.195039	-127.530271	42.051775	1176.141298	-198.395246	41.768324	1177.556355	-306.186418	134.374334	1013.774040	-61.071124	110.203870	993.047411	-434.034399	245.634219	929.571411	-76.944913	324.751488	893.099950	-91.340466	370.375576	817.986337	-98.430706	342.235394	913.713422	-116.285659	411.097294	722.872647	-128.666004	380.851508	705.728568	-223.708243	328.057944	667.452982	-89.655566	274.378625	596.520295	-98.349941	193.254477	562.091590	-90.315599	287.968220	579.453927	-131.511170	113.026136	498.930763	-82.597456	114.362414	503.398717	-161.111733	27.235043	513.222639	-119.232317	228.011670	339.371130	-127.258161	156.855553	379.753028	-61.988827	204.843881	890.085505	-428.408490	276.485814	845.899806	-416.576808	303.358943	869.906095	-404.367833	318.158519	765.891406	-405.496109	371.422905	681.973393	-386.806126	378.641815	668.579726	-292.384161	321.398937	316.047080	-409.146048	331.471113	324.436266	-332.402081	261.351274	260.243030	-372.475662	435.453236	257.288099	-434.707839	354.641883	582.017399	-414.109856	366.432065	496.652962	-407.455202	333.517141	414.163960	-410.183475	389.479931	495.309610	-374.608429	521.001474	298.426967	-366.901511	-64.709169	852.235584	-239.638461	21.009893	84.682207	-442.161026	21.137310	84.144048	-43.814298	
